<svg id="Layer_1" data-name="Layer 1" xmlns="http://www.w3.org/2000/svg" viewBox="0 0 285.38198 172.22024"><defs><style>.cls-1{fill:#384745;}.cls-2{fill:#5f224a;}</style></defs><title>sub-project-brand-logo-variants</title><path class="cls-1" d="M0,132.91508H9.55437v31.52384H25.631V171.533H0Z"/><path class="cls-1" d="M27.17782,151.68113c0-13.90319,7.38042-19.45237,17.73612-19.45237,10.18341,0,17.56384,5.54918,17.56384,19.45237,0,15.44717-7.609,20.53911-17.56384,20.53911C34.55824,172.22024,27.17782,166.67014,27.17782,151.68113Zm25.51651,0c0-9.6121-3.77566-12.70191-7.89493-12.70191s-7.83813,3.08981-7.83813,12.70191c0,10.69792,3.71885,13.78773,7.83813,13.78773S52.69433,162.37905,52.69433,151.68113Z"/><path class="cls-1" d="M67.68473,132.91508H77.92542l10.12707,19.16648c.85766,1.65945,2.00214,4.576,2.91753,6.865h.22909c-.11455-2.17348-.40043-5.26329-.40043-7.49451v-18.537H98.6368V171.533H88.62427L78.09769,152.42425a53.26132,53.26132,0,0,1-2.80345-6.29322h-.22908c.17181,2.17441.4577,4.74925.4577,6.865v18.537H67.68473Z"/><path class="cls-1" d="M121.179,152.02383h15.90533V171.533h-6.46457v-6.5223c-1.37355,4.29108-4.46336,7.20954-11.09927,7.20954-8.9258,0-15.61945-6.17961-15.61945-20.19641s6.75139-19.79507,17.278-19.79507c11.84333,0,16.4771,6.69365,15.16128,13.50184l-8.98167.9722c.68632-5.32009-1.94533-7.72358-5.72145-7.72358-4.17654,0-7.83812,3.03207-7.83812,13.21595s3.14661,13.04461,7.78039,13.04461c4.29108,0,6.69458-2.63164,6.80912-5.26329v-1.08674H121.179Z"/><path class="cls-1" d="M142.80669,132.91508h9.55438v14.58858h11.72878V132.91508h9.55438V171.533h-9.55438V155.17137H152.36107V171.533h-9.55438Z"/><path class="cls-1" d="M178.85164,151.68113c0-13.90319,7.38-19.45237,17.73519-19.45237,10.18388,0,17.56477,5.54918,17.56477,19.45237,0,15.44717-7.609,20.53911-17.56477,20.53911C186.2316,172.22024,178.85164,166.67014,178.85164,151.68113Zm25.51651,0c0-9.6121-3.77612-12.70191-7.89493-12.70191-4.11974,0-7.83813,3.08981-7.83813,12.70191,0,10.69792,3.71839,13.78773,7.83813,13.78773C200.592,165.46886,204.36815,162.37905,204.36815,151.68113Z"/><path class="cls-1" d="M219.35809,132.91508h15.90533c7.55224,0,12.64418,3.66158,12.64418,10.75565a10.807,10.807,0,0,1-7.78132,10.4707,11.45027,11.45027,0,0,1,2.68938,3.66158c1.60171,3.26115,2.68845,6.865,6.06414,6.865a4.45175,4.45175,0,0,0,1.5449-.28589l-.744,6.80819a18.70757,18.70757,0,0,1-3.83292.515c-4.577,0-7.20862-1.774-9.898-7.89586-1.14354-2.74526-2.74618-7.55224-4.86286-7.55224h-2.17441V171.533h-9.55437Zm9.55437,6.92273v9.49664h3.43343c2.74618,0,5.9496-.85766,5.9496-4.97647,0-3.3757-2.17348-4.52017-4.80606-4.52017Z"/><path class="cls-1" d="M254.4299,132.91508h10.24162l10.12615,19.16648c.85859,1.65945,2.00213,4.576,2.91753,6.865h.22908c-.11454-2.17348-.40043-5.26329-.40043-7.49451v-18.537H285.382V171.533H275.37037l-10.5275-19.10875a53.33631,53.33631,0,0,1-2.803-6.29322h-.22908c.17134,2.17441.45723,4.74925.45723,6.865v18.537H254.4299Z"/><path class="cls-2" d="M142.691,56.43871a7.00616,7.00616,0,0,1-1.3706-.13535l-3.69875-.73845,3.184,19.58817a6.94655,6.94655,0,0,1,.09092,1.12314h3.58817a7.00065,7.00065,0,0,1,.11416-1.25815l3.5687-19.53447-4.106.81976A7.00631,7.00631,0,0,1,142.691,56.43871Z"/><path class="cls-2" d="M196.28813,0H89.09393A14.43471,14.43471,0,0,0,74.70149,14.39244V96.96972a14.43471,14.43471,0,0,0,14.39244,14.39243h107.1942a14.4347,14.4347,0,0,0,14.39236-14.39243V14.39244A14.4347,14.4347,0,0,0,196.28813,0Zm2.41847,29.10664-1.75137,11.9a7.0004,7.0004,0,0,1-5.55487,5.8454l-28.46726,5.6836c-.00487.0285-.006.05674-.0112.08524l-4.45633,24.39536a14.01853,14.01853,0,0,1-13.98084,13.26h-3.58817a14.01807,14.01807,0,0,1-13.98493-13.34064l-3.94895-24.29736L93.98161,46.852a7.00041,7.00041,0,0,1-5.55487-5.8454l-1.75136-11.9a7.00008,7.00008,0,0,1,13.85095-2.03848l1.0329,7.0205,41.13176,8.212,41.13175-8.212,1.03291-7.0205a7.00008,7.00008,0,0,1,13.851,2.03848Z"/></svg>